<?xml version="1.0" encoding="UTF-8" standalone="no"?>
<svg width="256px" height="256px" viewBox="0 0 256 256" version="1.1" xmlns="http://www.w3.org/2000/svg" xmlns:xlink="http://www.w3.org/1999/xlink">
    <!-- Generator: Sketch 42 (36781) - http://www.bohemiancoding.com/sketch -->
    <title>logo</title>
    <desc>Created with Sketch.</desc>
    <defs></defs>
    <g id="Page-1" stroke="none" stroke-width="1" fill="none" fill-rule="evenodd">
        <g id="logo">
            <g transform="translate(24.000000, 24.000000)" id="Page-1">
                <g>
                    <g id="Group-3" transform="translate(0.140625, 0.402891)" fill="#F9F9F9">
                        <path d="M0.0850078125,103.026586 C0.0850078125,159.91643 46.2029766,206.034398 103.09282,206.034398 C159.982664,206.034398 206.100633,159.91643 206.100633,103.026586 C206.100633,46.1367422 159.982664,0.0187734375 103.09282,0.0187734375 C46.2029766,0.0187734375 0.0850078125,46.1367422 0.0850078125,103.026586" id="Fill-1"></path>
                    </g>
                    <g id="Group-3" transform="translate(0.140625, 0.121641)"></g>
                    <g id="Group-6" transform="translate(37.687500, 0.262266)" fill="#9F9FED">
                        <path d="M0.264722028,23.4827067 C18.0352316,8.90716602 40.7689708,0.159398437 65.5459453,0.159398437 C122.435789,0.159398437 168.553758,46.2773672 168.553758,103.167211 C168.553758,160.057055 122.435789,206.175023 65.5459453,206.175023 C58.6607214,206.175023 51.9332797,205.499506 45.4262803,204.21113 C47.9038331,196.09118 50.421665,187.983039 52.9562109,179.880469 C54.1114453,176.185547 56.8592578,174.775078 60.5309766,174.522656 C65.7446484,174.164062 70.9505859,173.68875 76.1537109,173.199375 C80.3823047,172.801406 84.3085547,171.59625 87.4754297,168.566484 C91.1373047,165.063516 92.0745703,161.358047 89.9820703,156.719531 C88.0604297,152.458594 89.0574609,148.648359 90.9566016,144.776953 C92.9344922,140.743828 92.5308984,139.282031 88.7269922,136.596094 C89.4673828,135.720703 90.1698047,134.836172 90.9291797,134.002969 C93.7170703,130.943672 93.7072266,129.922031 90.8117578,127.076484 C87.9380859,124.252734 88.0695703,120.52125 91.5001172,118.696641 C99.4257422,114.48 101.855742,109.011797 92.4050391,102.173203 C87.7250391,98.78625 83.7249609,94.4402344 79.5350391,90.4057031 C77.4341016,88.3835156 76.0538672,85.9654687 76.5741797,82.7859375 C79.4457422,65.2485937 70.5258984,52.3082812 58.7450391,41.5110937 C46.7476172,30.5149219 32.3912109,23.3114062 15.6139453,22.2138281 C10.3815849,21.8712359 5.32382713,22.5656965 0.264719659,23.4827074 Z" id="Combined-Shape"></path>
                    </g>
                    <path d="M93.6786605,164.475985 C93.2697426,164.532352 92.8608248,164.588719 92.4508821,164.645086 C91.9528017,164.034271 91.206706,163.498271 90.9955855,162.800344 C89.8651685,159.051418 88.8690077,155.262522 87.8246787,151.48695 C85.9184451,144.601962 84.0101619,137.716975 82.1029035,130.831987 C81.8569378,131.393609 81.798521,131.943957 81.7831482,132.496354 C81.5771519,139.963461 81.3639817,147.431592 81.1907809,154.899723 C81.162085,156.159272 80.7213966,157.082668 79.4341765,157.208725 C78.2238206,157.326584 77.6109563,156.529245 77.3219467,155.383455 C76.2888911,151.286078 75.2189407,147.1969 74.1541145,143.106696 C73.806688,141.774383 73.4285159,140.449243 73.0646918,139.120004 C72.104401,142.460012 71.4454181,145.735454 70.8110318,149.01602 C70.594787,150.137214 70.2822057,151.169245 68.9293948,151.3117 C67.6483238,151.445956 67.1379452,150.523585 66.6870082,149.555095 C65.8517499,147.759546 65.0123923,145.966047 64.1750843,144.171523 C63.7651416,146.642452 61.9296231,146.722391 60.1525215,146.936586 C57.7461579,147.226621 55.3449185,147.564823 52.9426543,147.882529 C52.7735529,146.654751 52.6044516,145.427997 52.4353502,144.200219 C54.5803754,143.891737 56.7192514,143.525863 58.8724755,143.301419 C59.8799096,143.196884 60.2929269,142.775668 60.4374317,141.810253 C60.6208811,140.590673 60.9590838,139.394665 61.1948009,138.181235 C61.4089959,137.081564 61.6365141,136.005464 63.0118719,135.832263 C64.3821054,135.659062 64.8801857,136.610129 65.350595,137.647285 C66.152033,139.415162 67.0067635,141.158444 67.9844768,143.218406 C68.1669013,142.437465 68.2775859,142.016249 68.362649,141.589908 C69.1087447,137.852256 69.8486913,134.114603 70.5927373,130.376951 C70.8294792,129.182993 71.0672459,127.953164 72.6404011,127.902947 C74.2371279,127.852729 74.5025658,129.114327 74.8048985,130.27139 C75.5714914,133.214779 76.3093882,136.166367 77.0677822,139.111805 C77.1805165,139.548394 77.3424438,139.973709 77.4807995,140.403124 C77.9430099,133.055926 78.1367078,125.795841 78.3037595,118.534731 C78.3324555,117.288505 78.3529526,116.072 79.3931822,115.169101 C79.8021,115.112734 80.2110179,115.056367 80.6209606,115 C81.2153775,115.838333 82.0885555,116.595702 82.3591176,117.527297 C84.1884869,123.814793 85.8887243,130.139184 87.6330305,136.451277 C88.7296272,140.420547 89.8313482,144.388792 90.9310195,148.358062 C91.1862089,148.027034 91.2651228,147.729825 91.2702471,147.429542 C91.4260253,139.28603 91.5838533,131.142519 91.7119604,122.997982 C91.7304078,121.784552 91.8400675,120.616215 93.2287484,120.310808 C94.6010316,120.0095 95.227219,120.946219 95.7232497,122.094058 C98.1326879,127.674403 100.58517,133.236301 103.029453,138.802298 C103.259021,139.324975 103.532658,139.827155 103.905706,140.580425 C104.259282,139.57709 104.55649,138.915032 104.722517,138.222229 C105.069943,136.777181 105.908276,136.081303 107.42199,135.947047 C109.733041,135.741051 112.028721,135.364929 114.330549,135.061571 C114.49965,136.288324 114.668752,137.516103 114.836828,138.742856 C112.99926,138.995996 111.148369,139.183545 109.332323,139.544294 C108.817844,139.645755 108.180384,140.165358 107.985661,140.64909 C107.27646,142.411844 106.832697,144.285282 106.075328,146.025488 C105.752498,146.76851 105.003328,147.608892 104.27363,147.828211 C103.205729,148.147967 102.547771,147.238919 102.130654,146.256081 C101.22673,144.125404 100.287962,142.009075 99.3563669,139.889671 C98.1183399,137.07439 96.873139,134.263208 95.4783089,131.101524 C95.4096435,131.929609 95.3522516,132.337502 95.3450776,132.74642 C95.1688022,142.371874 94.9884274,151.998354 94.8398232,161.623808 C94.8224006,162.758325 94.6307524,163.754485 93.6786605,164.475985" id="waveform" fill="#9F9FED"></path>
                </g>
            </g>
        </g>
    </g>
</svg>