<?xml version="1.0" encoding="UTF-8"?>
<svg width="790px" height="256px" viewBox="0 0 790 256" version="1.1" xmlns="http://www.w3.org/2000/svg" xmlns:xlink="http://www.w3.org/1999/xlink">
    <!-- Generator: Sketch 43.2 (39069) - http://www.bohemiancoding.com/sketch -->
    <title>full copy@1x</title>
    <desc>Created with Sketch.</desc>
    <defs></defs>
    <g id="Page-1" stroke="none" stroke-width="1" fill="none" fill-rule="evenodd">
        <g id="full-copy">
            <path d="M36,128.5 C36,77.4136606 77.4136606,36 128.5,36 C179.586339,36 221,77.4136606 221,128.5 C221,179.586339 179.586339,221 128.5,221 L36,221 L36,128.500016 Z" id="Combined-Shape" fill="#F3F3F3"></path>
            <g id="Group-Copy" transform="translate(296.000000, 67.000000)">
                <path d="M0.984,64 L0.984,13.672 L9.48,13.672 L9.48,55.936 L32.448,55.936 L32.448,64 L0.984,64 Z M63.5519965,20.224 C58.5599715,20.224 54.3480136,21.9999822 50.9159965,25.552 C47.4839793,29.1040178 45.7679965,33.4119747 45.7679965,38.476 C45.7679965,43.5400253 47.4839793,47.8479822 50.9159965,51.4 C54.3480136,54.9520178 58.5599715,56.728 63.5519965,56.728 C68.5440214,56.728 72.7559793,54.9520178 76.1879965,51.4 C79.6200136,47.8479822 81.3359965,43.5400253 81.3359965,38.476 C81.3359965,33.4119747 79.6200136,29.1040178 76.1879965,25.552 C72.7559793,21.9999822 68.5440214,20.224 63.5519965,20.224 Z M63.5519965,64.504 C56.063959,64.504 49.7760219,62.0200248 44.6879965,57.052 C39.599971,52.0839752 37.0559965,45.8920371 37.0559965,38.476 C37.0559965,31.0599629 39.599971,24.8680248 44.6879965,19.9 C49.7760219,14.9319752 56.063959,12.448 63.5519965,12.448 C71.0400339,12.448 77.327971,14.9319752 82.4159965,19.9 C87.5040219,24.8680248 90.0479965,31.0599629 90.0479965,38.476 C90.0479965,45.8920371 87.5040219,52.0839752 82.4159965,57.052 C77.327971,62.0200248 71.0400339,64.504 63.5519965,64.504 Z M135.623993,39.52 L144.119993,39.52 L144.119993,56.728 C139.367969,61.9600262 132.576037,64.576 123.743993,64.576 C116.303956,64.576 110.076018,62.1280245 105.059993,57.232 C100.043968,52.3359755 97.5359929,46.1440374 97.5359929,38.656 C97.5359929,31.1679626 100.091967,24.928025 105.203993,19.936 C110.316018,14.943975 116.495957,12.448 123.743993,12.448 C130.992029,12.448 137.015969,14.5599789 141.815993,18.784 L137.279993,25.264 C135.311983,23.5839916 133.332003,22.4200032 131.339993,21.772 C129.347983,21.1239968 127.032006,20.8 124.391993,20.8 C119.303967,20.8 115.03201,22.4439836 111.575993,25.732 C108.119976,29.0200164 106.391993,33.3399732 106.391993,38.692 C106.391993,44.0440268 108.071976,48.3399838 111.431993,51.58 C114.79201,54.8200162 118.859969,56.44 123.635993,56.44 C128.412017,56.44 132.407977,55.4080103 135.623993,53.344 L135.623993,39.52 Z M178.535989,20.224 C173.543964,20.224 169.332007,21.9999822 165.899989,25.552 C162.467972,29.1040178 160.751989,33.4119747 160.751989,38.476 C160.751989,43.5400253 162.467972,47.8479822 165.899989,51.4 C169.332007,54.9520178 173.543964,56.728 178.535989,56.728 C183.528014,56.728 187.739972,54.9520178 191.171989,51.4 C194.604007,47.8479822 196.319989,43.5400253 196.319989,38.476 C196.319989,33.4119747 194.604007,29.1040178 191.171989,25.552 C187.739972,21.9999822 183.528014,20.224 178.535989,20.224 Z M178.535989,64.504 C171.047952,64.504 164.760015,62.0200248 159.671989,57.052 C154.583964,52.0839752 152.039989,45.8920371 152.039989,38.476 C152.039989,31.0599629 154.583964,24.8680248 159.671989,19.9 C164.760015,14.9319752 171.047952,12.448 178.535989,12.448 C186.024027,12.448 192.311964,14.9319752 197.399989,19.9 C202.488015,24.8680248 205.031989,31.0599629 205.031989,38.476 C205.031989,45.8920371 202.488015,52.0839752 197.399989,57.052 C192.311964,62.0200248 186.024027,64.504 178.535989,64.504 Z M249.743986,18.064 C253.248003,20.9920146 254.999986,25.5039695 254.999986,31.6 C254.999986,37.6960305 253.212004,42.1599858 249.635986,44.992 C246.059968,47.8240142 240.576023,49.24 233.183986,49.24 L224.255986,49.24 L224.255986,64 L215.759986,64 L215.759986,13.672 L233.039986,13.672 C240.672024,13.672 246.239968,15.1359854 249.743986,18.064 Z M243.731986,38.836 C245.435994,37.035991 246.287986,34.3960174 246.287986,30.916 C246.287986,27.4359826 245.207997,24.9760072 243.047986,23.536 C240.887975,22.0959928 237.504009,21.376 232.895986,21.376 L224.255986,21.376 L224.255986,41.536 L234.119986,41.536 C238.824009,41.536 242.027977,40.636009 243.731986,38.836 Z M288.407982,13.672 L310.583982,64 L301.223982,64 L296.111982,52.552 L271.991982,52.552 L267.095982,64 L258.023982,64 L280.199982,13.672 L288.407982,13.672 Z M292.727982,44.704 L284.087982,25.336 L275.519982,44.704 L292.727982,44.704 Z M274.475982,8.488 C273.635978,7.62399568 273.215982,6.58000612 273.215982,5.356 C273.215982,4.13199388 273.635978,3.08800432 274.475982,2.224 C275.315987,1.35999568 276.359976,0.928 277.607982,0.928 C278.855989,0.928 279.911978,1.3479958 280.775982,2.188 C281.639987,3.0280042 282.071982,4.05999388 282.071982,5.284 C282.071982,6.50800612 281.639987,7.56399556 280.775982,8.452 C279.911978,9.34000444 278.855989,9.784 277.607982,9.784 C276.359976,9.784 275.315987,9.35200432 274.475982,8.488 Z M287.831982,8.488 C286.967978,7.62399568 286.535982,6.58000612 286.535982,5.356 C286.535982,4.13199388 286.967978,3.08800432 287.831982,2.224 C288.695987,1.35999568 289.739976,0.928 290.963982,0.928 C292.187988,0.928 293.231978,1.3479958 294.095982,2.188 C294.959987,3.0280042 295.391982,4.05999388 295.391982,5.284 C295.391982,6.50800612 294.947987,7.56399556 294.059982,8.452 C293.171978,9.34000444 292.127988,9.784 290.927982,9.784 C289.727976,9.784 288.695987,9.35200432 287.831982,8.488 Z M355.655979,20.26 C360.504003,24.652022 362.927979,30.7599609 362.927979,38.584 C362.927979,46.4080391 360.576002,52.5999772 355.871979,57.16 C351.167955,61.7200228 343.968027,64 334.271979,64 L317.567979,64 L317.567979,13.672 L334.847979,13.672 C343.872024,13.672 350.807955,15.867978 355.655979,20.26 Z M354.359979,38.8 C354.359979,27.2799424 347.760045,21.52 334.559979,21.52 L326.063979,21.52 L326.063979,56.008 L335.495979,56.008 C341.592009,56.008 346.259963,54.5560145 349.499979,51.652 C352.739995,48.7479855 354.359979,44.4640283 354.359979,38.8 Z M373.871975,13.672 L382.367975,13.672 L382.367975,64 L373.871975,64 L373.871975,13.672 Z M431.687972,13.672 L431.687972,21.664 L404.831972,21.664 L404.831972,34.984 L428.951972,34.984 L428.951972,42.544 L404.831972,42.544 L404.831972,56.008 L432.551972,56.008 L432.551972,64 L396.335972,64 L396.335972,13.672 L431.687972,13.672 Z" id="Logopädie" fill="#484848"></path>
                <path d="M6.675,118 L1.365,118 L1.365,86.545 L9.645,86.545 L19.14,106.3 L28.635,86.545 L36.87,86.545 L36.87,118 L31.56,118 L31.56,93.43 L20.58,115.255 L17.61,115.255 L6.675,93.43 L6.675,118 Z M50.0549956,110.845 L46.9049956,118 L41.2349956,118 L55.0949956,86.545 L60.7649956,86.545 L74.6249956,118 L68.9549956,118 L65.8049956,110.845 L50.0549956,110.845 Z M63.6449956,105.94 L57.9299956,92.98 L52.2149956,105.94 L63.6449956,105.94 Z M102.569991,86.545 L107.879991,86.545 L107.879991,118 L102.119991,118 L84.2999912,95.05 L84.2999912,118 L78.9899912,118 L78.9899912,86.545 L84.2999912,86.545 L102.569991,110.035 L102.569991,86.545 Z M129.524987,113.32 C131.984999,113.32 133.93498,112.480008 135.374987,110.8 C136.814994,109.119992 137.534987,106.840014 137.534987,103.96 L137.534987,86.545 L142.844987,86.545 L142.844987,104.185 C142.844987,108.715023 141.599999,112.202488 139.109987,114.6475 C136.619974,117.092512 133.425006,118.315 129.524987,118.315 C125.624967,118.315 122.429999,117.092512 119.939987,114.6475 C117.449974,112.202488 116.204987,108.715023 116.204987,104.185 L116.204987,86.545 L121.514987,86.545 L121.514987,103.96 C121.514987,106.840014 122.23498,109.119992 123.674987,110.8 C125.114994,112.480008 127.064974,113.32 129.524987,113.32 Z M173.264982,86.545 L173.264982,91.54 L156.479982,91.54 L156.479982,99.865 L171.554982,99.865 L171.554982,104.59 L156.479982,104.59 L156.479982,113.005 L173.804982,113.005 L173.804982,118 L151.169982,118 L151.169982,86.545 L173.264982,86.545 Z M180.599978,118 L180.599978,86.545 L185.909978,86.545 L185.909978,112.96 L200.264978,112.96 L200.264978,118 L180.599978,118 Z M210.524973,110.845 L207.374973,118 L201.704973,118 L215.564973,86.545 L221.234973,86.545 L235.094973,118 L229.424973,118 L226.274973,110.845 L210.524973,110.845 Z M224.114973,105.94 L218.399973,92.98 L212.684973,105.94 L224.114973,105.94 Z M275.594965,90.6625 C278.62498,93.4075137 280.139965,97.2249755 280.139965,102.115 C280.139965,107.005024 278.669979,110.874986 275.729965,113.725 C272.78995,116.575014 268.289995,118 262.229965,118 L251.789965,118 L251.789965,86.545 L262.589965,86.545 C268.229993,86.545 272.564949,87.9174863 275.594965,90.6625 Z M274.784965,102.25 C274.784965,95.049964 270.660006,91.45 262.409965,91.45 L257.099965,91.45 L257.099965,113.005 L262.994965,113.005 C266.804984,113.005 269.722455,112.097509 271.747465,110.2825 C273.772475,108.467491 274.784965,105.790018 274.784965,102.25 Z M295.14746,83.305 C294.622458,82.7649973 294.35996,82.1125038 294.35996,81.3475 C294.35996,80.5824962 294.622458,79.9300027 295.14746,79.39 C295.672463,78.8499973 296.324956,78.58 297.10496,78.58 C297.884964,78.58 298.544958,78.8424974 299.08496,79.3675 C299.624963,79.8925026 299.89496,80.5374962 299.89496,81.3025 C299.89496,82.0675038 299.624963,82.7274972 299.08496,83.2825 C298.544958,83.8375028 297.884964,84.115 297.10496,84.115 C296.324956,84.115 295.672463,83.8450027 295.14746,83.305 Z M303.49496,83.305 C302.954958,82.7649973 302.68496,82.1125038 302.68496,81.3475 C302.68496,80.5824962 302.954958,79.9300027 303.49496,79.39 C304.034963,78.8499973 304.687456,78.58 305.45246,78.58 C306.217464,78.58 306.869958,78.8424974 307.40996,79.3675 C307.949963,79.8925026 308.21996,80.5374962 308.21996,81.3025 C308.21996,82.0675038 307.942463,82.7274972 307.38746,83.2825 C306.832457,83.8375028 306.179964,84.115 305.42996,84.115 C304.679956,84.115 304.034963,83.8450027 303.49496,83.305 Z M301.51496,90.64 C298.394945,90.64 295.762471,91.7499889 293.61746,93.97 C291.472449,96.1900111 290.39996,98.8824842 290.39996,102.0475 C290.39996,105.212516 291.472449,107.904989 293.61746,110.125 C295.762471,112.345011 298.394945,113.455 301.51496,113.455 C304.634976,113.455 307.267449,112.345011 309.41246,110.125 C311.557471,107.904989 312.62996,105.212516 312.62996,102.0475 C312.62996,98.8824842 311.557471,96.1900111 309.41246,93.97 C307.267449,91.7499889 304.634976,90.64 301.51496,90.64 Z M301.51496,118.315 C296.834937,118.315 292.904976,116.762516 289.72496,113.6575 C286.544944,110.552484 284.95496,106.682523 284.95496,102.0475 C284.95496,97.4124768 286.544944,93.5425155 289.72496,90.4375 C292.904976,87.3324845 296.834937,85.78 301.51496,85.78 C306.194984,85.78 310.124944,87.3324845 313.30496,90.4375 C316.484976,93.5425155 318.07496,97.4124768 318.07496,102.0475 C318.07496,106.682523 316.484976,110.552484 313.30496,113.6575 C310.124944,116.762516 306.194984,118.315 301.51496,118.315 Z M349.889956,96.76 C349.889956,101.950026 347.624978,105.219993 343.094956,106.57 L351.329956,118 L344.579956,118 L337.064956,107.425 L330.089956,107.425 L330.089956,118 L324.779956,118 L324.779956,86.545 L336.479956,86.545 C341.27998,86.545 344.714945,87.3549919 346.784956,88.975 C348.854966,90.5950081 349.889956,93.1899821 349.889956,96.76 Z M342.824956,101.215 C343.904961,100.284995 344.444956,98.7925103 344.444956,96.7375 C344.444956,94.6824897 343.889961,93.2725038 342.779956,92.5075 C341.66995,91.7424962 339.68997,91.36 336.839956,91.36 L330.089956,91.36 L330.089956,102.61 L336.704956,102.61 C339.704971,102.61 341.74495,102.145005 342.824956,101.215 Z M362.849951,91.495 L362.849951,100.135 L376.799951,100.135 L376.799951,105.04 L362.849951,105.04 L362.849951,118 L357.539951,118 L357.539951,86.545 L378.509951,86.545 L378.464951,91.495 L362.849951,91.495 Z M406.814947,86.545 L406.814947,91.54 L390.029947,91.54 L390.029947,99.865 L405.104947,99.865 L405.104947,104.59 L390.029947,104.59 L390.029947,113.005 L407.354947,113.005 L407.354947,118 L384.719947,118 L384.719947,86.545 L406.814947,86.545 Z M414.149943,118 L414.149943,86.545 L419.459943,86.545 L419.459943,112.96 L433.814943,112.96 L433.814943,118 L414.149943,118 Z" id="Manuela-Dörfel" fill="#ADADAD"></path>
            </g>
            <g id="Group" transform="translate(69.000000, 84.000000)">
                <path d="M0,43.7218579 C0,43.7218579 3.46873655,24.327498 15.3295074,24.327498 C27.1902782,24.327498 29.5267216,43.7218579 29.5267216,43.7218579 C29.5267216,43.7218579 35.503923,88.5974395 50.3456734,88.5974395 C65.1874237,88.5974395 70.685578,43.7218579 70.685578,43.7218579 C70.685578,43.7218579 73.4553413,12.0612022 89.0309047,12.0612022 C104.606468,12.0612022 106.860167,43.7218579 106.860167,43.7218579 L0,43.7218579 Z" id="Path" fill="#D4C1EC"></path>
                <path d="M12.1463415,43.7218579 C12.1463415,43.7218579 15.5453984,77.2973401 29.7839849,77.2973401 C44.0225714,77.2973401 48.7825576,43.7218579 48.7825576,43.7218579 C48.7825576,43.7218579 52.0923377,-4.31733399e-15 68.7697094,-7.10542736e-15 C85.4470812,-7.10542736e-15 88.8940428,43.7218579 88.8940428,43.7218579 C88.8940428,43.7218579 91.8227626,64.2807526 104.476139,64.2807526 C117.129515,64.2807526 119.121915,43.7218579 119.121915,43.7218579 L12.1463415,43.7218579 Z" id="Path-2" fill="#736CED"></path>
            </g>
            <g id="Group-Copy" transform="translate(296.000000, 67.000000)">
                <path d="M0.984,64 L0.984,13.672 L9.48,13.672 L9.48,55.936 L32.448,55.936 L32.448,64 L0.984,64 Z M63.5519965,20.224 C58.5599715,20.224 54.3480136,21.9999822 50.9159965,25.552 C47.4839793,29.1040178 45.7679965,33.4119747 45.7679965,38.476 C45.7679965,43.5400253 47.4839793,47.8479822 50.9159965,51.4 C54.3480136,54.9520178 58.5599715,56.728 63.5519965,56.728 C68.5440214,56.728 72.7559793,54.9520178 76.1879965,51.4 C79.6200136,47.8479822 81.3359965,43.5400253 81.3359965,38.476 C81.3359965,33.4119747 79.6200136,29.1040178 76.1879965,25.552 C72.7559793,21.9999822 68.5440214,20.224 63.5519965,20.224 Z M63.5519965,64.504 C56.063959,64.504 49.7760219,62.0200248 44.6879965,57.052 C39.599971,52.0839752 37.0559965,45.8920371 37.0559965,38.476 C37.0559965,31.0599629 39.599971,24.8680248 44.6879965,19.9 C49.7760219,14.9319752 56.063959,12.448 63.5519965,12.448 C71.0400339,12.448 77.327971,14.9319752 82.4159965,19.9 C87.5040219,24.8680248 90.0479965,31.0599629 90.0479965,38.476 C90.0479965,45.8920371 87.5040219,52.0839752 82.4159965,57.052 C77.327971,62.0200248 71.0400339,64.504 63.5519965,64.504 Z M135.623993,39.52 L144.119993,39.52 L144.119993,56.728 C139.367969,61.9600262 132.576037,64.576 123.743993,64.576 C116.303956,64.576 110.076018,62.1280245 105.059993,57.232 C100.043968,52.3359755 97.5359929,46.1440374 97.5359929,38.656 C97.5359929,31.1679626 100.091967,24.928025 105.203993,19.936 C110.316018,14.943975 116.495957,12.448 123.743993,12.448 C130.992029,12.448 137.015969,14.5599789 141.815993,18.784 L137.279993,25.264 C135.311983,23.5839916 133.332003,22.4200032 131.339993,21.772 C129.347983,21.1239968 127.032006,20.8 124.391993,20.8 C119.303967,20.8 115.03201,22.4439836 111.575993,25.732 C108.119976,29.0200164 106.391993,33.3399732 106.391993,38.692 C106.391993,44.0440268 108.071976,48.3399838 111.431993,51.58 C114.79201,54.8200162 118.859969,56.44 123.635993,56.44 C128.412017,56.44 132.407977,55.4080103 135.623993,53.344 L135.623993,39.52 Z M178.535989,20.224 C173.543964,20.224 169.332007,21.9999822 165.899989,25.552 C162.467972,29.1040178 160.751989,33.4119747 160.751989,38.476 C160.751989,43.5400253 162.467972,47.8479822 165.899989,51.4 C169.332007,54.9520178 173.543964,56.728 178.535989,56.728 C183.528014,56.728 187.739972,54.9520178 191.171989,51.4 C194.604007,47.8479822 196.319989,43.5400253 196.319989,38.476 C196.319989,33.4119747 194.604007,29.1040178 191.171989,25.552 C187.739972,21.9999822 183.528014,20.224 178.535989,20.224 Z M178.535989,64.504 C171.047952,64.504 164.760015,62.0200248 159.671989,57.052 C154.583964,52.0839752 152.039989,45.8920371 152.039989,38.476 C152.039989,31.0599629 154.583964,24.8680248 159.671989,19.9 C164.760015,14.9319752 171.047952,12.448 178.535989,12.448 C186.024027,12.448 192.311964,14.9319752 197.399989,19.9 C202.488015,24.8680248 205.031989,31.0599629 205.031989,38.476 C205.031989,45.8920371 202.488015,52.0839752 197.399989,57.052 C192.311964,62.0200248 186.024027,64.504 178.535989,64.504 Z M249.743986,18.064 C253.248003,20.9920146 254.999986,25.5039695 254.999986,31.6 C254.999986,37.6960305 253.212004,42.1599858 249.635986,44.992 C246.059968,47.8240142 240.576023,49.24 233.183986,49.24 L224.255986,49.24 L224.255986,64 L215.759986,64 L215.759986,13.672 L233.039986,13.672 C240.672024,13.672 246.239968,15.1359854 249.743986,18.064 Z M243.731986,38.836 C245.435994,37.035991 246.287986,34.3960174 246.287986,30.916 C246.287986,27.4359826 245.207997,24.9760072 243.047986,23.536 C240.887975,22.0959928 237.504009,21.376 232.895986,21.376 L224.255986,21.376 L224.255986,41.536 L234.119986,41.536 C238.824009,41.536 242.027977,40.636009 243.731986,38.836 Z M288.407982,13.672 L310.583982,64 L301.223982,64 L296.111982,52.552 L271.991982,52.552 L267.095982,64 L258.023982,64 L280.199982,13.672 L288.407982,13.672 Z M292.727982,44.704 L284.087982,25.336 L275.519982,44.704 L292.727982,44.704 Z M274.475982,8.488 C273.635978,7.62399568 273.215982,6.58000612 273.215982,5.356 C273.215982,4.13199388 273.635978,3.08800432 274.475982,2.224 C275.315987,1.35999568 276.359976,0.928 277.607982,0.928 C278.855989,0.928 279.911978,1.3479958 280.775982,2.188 C281.639987,3.0280042 282.071982,4.05999388 282.071982,5.284 C282.071982,6.50800612 281.639987,7.56399556 280.775982,8.452 C279.911978,9.34000444 278.855989,9.784 277.607982,9.784 C276.359976,9.784 275.315987,9.35200432 274.475982,8.488 Z M287.831982,8.488 C286.967978,7.62399568 286.535982,6.58000612 286.535982,5.356 C286.535982,4.13199388 286.967978,3.08800432 287.831982,2.224 C288.695987,1.35999568 289.739976,0.928 290.963982,0.928 C292.187988,0.928 293.231978,1.3479958 294.095982,2.188 C294.959987,3.0280042 295.391982,4.05999388 295.391982,5.284 C295.391982,6.50800612 294.947987,7.56399556 294.059982,8.452 C293.171978,9.34000444 292.127988,9.784 290.927982,9.784 C289.727976,9.784 288.695987,9.35200432 287.831982,8.488 Z M355.655979,20.26 C360.504003,24.652022 362.927979,30.7599609 362.927979,38.584 C362.927979,46.4080391 360.576002,52.5999772 355.871979,57.16 C351.167955,61.7200228 343.968027,64 334.271979,64 L317.567979,64 L317.567979,13.672 L334.847979,13.672 C343.872024,13.672 350.807955,15.867978 355.655979,20.26 Z M354.359979,38.8 C354.359979,27.2799424 347.760045,21.52 334.559979,21.52 L326.063979,21.52 L326.063979,56.008 L335.495979,56.008 C341.592009,56.008 346.259963,54.5560145 349.499979,51.652 C352.739995,48.7479855 354.359979,44.4640283 354.359979,38.8 Z M373.871975,13.672 L382.367975,13.672 L382.367975,64 L373.871975,64 L373.871975,13.672 Z M431.687972,13.672 L431.687972,21.664 L404.831972,21.664 L404.831972,34.984 L428.951972,34.984 L428.951972,42.544 L404.831972,42.544 L404.831972,56.008 L432.551972,56.008 L432.551972,64 L396.335972,64 L396.335972,13.672 L431.687972,13.672 Z" id="Logopädie" fill="#FFFFFF"></path>
                <path d="M6.675,118 L1.365,118 L1.365,86.545 L9.645,86.545 L19.14,106.3 L28.635,86.545 L36.87,86.545 L36.87,118 L31.56,118 L31.56,93.43 L20.58,115.255 L17.61,115.255 L6.675,93.43 L6.675,118 Z M50.0549956,110.845 L46.9049956,118 L41.2349956,118 L55.0949956,86.545 L60.7649956,86.545 L74.6249956,118 L68.9549956,118 L65.8049956,110.845 L50.0549956,110.845 Z M63.6449956,105.94 L57.9299956,92.98 L52.2149956,105.94 L63.6449956,105.94 Z M102.569991,86.545 L107.879991,86.545 L107.879991,118 L102.119991,118 L84.2999912,95.05 L84.2999912,118 L78.9899912,118 L78.9899912,86.545 L84.2999912,86.545 L102.569991,110.035 L102.569991,86.545 Z M129.524987,113.32 C131.984999,113.32 133.93498,112.480008 135.374987,110.8 C136.814994,109.119992 137.534987,106.840014 137.534987,103.96 L137.534987,86.545 L142.844987,86.545 L142.844987,104.185 C142.844987,108.715023 141.599999,112.202488 139.109987,114.6475 C136.619974,117.092512 133.425006,118.315 129.524987,118.315 C125.624967,118.315 122.429999,117.092512 119.939987,114.6475 C117.449974,112.202488 116.204987,108.715023 116.204987,104.185 L116.204987,86.545 L121.514987,86.545 L121.514987,103.96 C121.514987,106.840014 122.23498,109.119992 123.674987,110.8 C125.114994,112.480008 127.064974,113.32 129.524987,113.32 Z M173.264982,86.545 L173.264982,91.54 L156.479982,91.54 L156.479982,99.865 L171.554982,99.865 L171.554982,104.59 L156.479982,104.59 L156.479982,113.005 L173.804982,113.005 L173.804982,118 L151.169982,118 L151.169982,86.545 L173.264982,86.545 Z M180.599978,118 L180.599978,86.545 L185.909978,86.545 L185.909978,112.96 L200.264978,112.96 L200.264978,118 L180.599978,118 Z M210.524973,110.845 L207.374973,118 L201.704973,118 L215.564973,86.545 L221.234973,86.545 L235.094973,118 L229.424973,118 L226.274973,110.845 L210.524973,110.845 Z M224.114973,105.94 L218.399973,92.98 L212.684973,105.94 L224.114973,105.94 Z M275.594965,90.6625 C278.62498,93.4075137 280.139965,97.2249755 280.139965,102.115 C280.139965,107.005024 278.669979,110.874986 275.729965,113.725 C272.78995,116.575014 268.289995,118 262.229965,118 L251.789965,118 L251.789965,86.545 L262.589965,86.545 C268.229993,86.545 272.564949,87.9174863 275.594965,90.6625 Z M274.784965,102.25 C274.784965,95.049964 270.660006,91.45 262.409965,91.45 L257.099965,91.45 L257.099965,113.005 L262.994965,113.005 C266.804984,113.005 269.722455,112.097509 271.747465,110.2825 C273.772475,108.467491 274.784965,105.790018 274.784965,102.25 Z M295.14746,83.305 C294.622458,82.7649973 294.35996,82.1125038 294.35996,81.3475 C294.35996,80.5824962 294.622458,79.9300027 295.14746,79.39 C295.672463,78.8499973 296.324956,78.58 297.10496,78.58 C297.884964,78.58 298.544958,78.8424974 299.08496,79.3675 C299.624963,79.8925026 299.89496,80.5374962 299.89496,81.3025 C299.89496,82.0675038 299.624963,82.7274972 299.08496,83.2825 C298.544958,83.8375028 297.884964,84.115 297.10496,84.115 C296.324956,84.115 295.672463,83.8450027 295.14746,83.305 Z M303.49496,83.305 C302.954958,82.7649973 302.68496,82.1125038 302.68496,81.3475 C302.68496,80.5824962 302.954958,79.9300027 303.49496,79.39 C304.034963,78.8499973 304.687456,78.58 305.45246,78.58 C306.217464,78.58 306.869958,78.8424974 307.40996,79.3675 C307.949963,79.8925026 308.21996,80.5374962 308.21996,81.3025 C308.21996,82.0675038 307.942463,82.7274972 307.38746,83.2825 C306.832457,83.8375028 306.179964,84.115 305.42996,84.115 C304.679956,84.115 304.034963,83.8450027 303.49496,83.305 Z M301.51496,90.64 C298.394945,90.64 295.762471,91.7499889 293.61746,93.97 C291.472449,96.1900111 290.39996,98.8824842 290.39996,102.0475 C290.39996,105.212516 291.472449,107.904989 293.61746,110.125 C295.762471,112.345011 298.394945,113.455 301.51496,113.455 C304.634976,113.455 307.267449,112.345011 309.41246,110.125 C311.557471,107.904989 312.62996,105.212516 312.62996,102.0475 C312.62996,98.8824842 311.557471,96.1900111 309.41246,93.97 C307.267449,91.7499889 304.634976,90.64 301.51496,90.64 Z M301.51496,118.315 C296.834937,118.315 292.904976,116.762516 289.72496,113.6575 C286.544944,110.552484 284.95496,106.682523 284.95496,102.0475 C284.95496,97.4124768 286.544944,93.5425155 289.72496,90.4375 C292.904976,87.3324845 296.834937,85.78 301.51496,85.78 C306.194984,85.78 310.124944,87.3324845 313.30496,90.4375 C316.484976,93.5425155 318.07496,97.4124768 318.07496,102.0475 C318.07496,106.682523 316.484976,110.552484 313.30496,113.6575 C310.124944,116.762516 306.194984,118.315 301.51496,118.315 Z M349.889956,96.76 C349.889956,101.950026 347.624978,105.219993 343.094956,106.57 L351.329956,118 L344.579956,118 L337.064956,107.425 L330.089956,107.425 L330.089956,118 L324.779956,118 L324.779956,86.545 L336.479956,86.545 C341.27998,86.545 344.714945,87.3549919 346.784956,88.975 C348.854966,90.5950081 349.889956,93.1899821 349.889956,96.76 Z M342.824956,101.215 C343.904961,100.284995 344.444956,98.7925103 344.444956,96.7375 C344.444956,94.6824897 343.889961,93.2725038 342.779956,92.5075 C341.66995,91.7424962 339.68997,91.36 336.839956,91.36 L330.089956,91.36 L330.089956,102.61 L336.704956,102.61 C339.704971,102.61 341.74495,102.145005 342.824956,101.215 Z M362.849951,91.495 L362.849951,100.135 L376.799951,100.135 L376.799951,105.04 L362.849951,105.04 L362.849951,118 L357.539951,118 L357.539951,86.545 L378.509951,86.545 L378.464951,91.495 L362.849951,91.495 Z M406.814947,86.545 L406.814947,91.54 L390.029947,91.54 L390.029947,99.865 L405.104947,99.865 L405.104947,104.59 L390.029947,104.59 L390.029947,113.005 L407.354947,113.005 L407.354947,118 L384.719947,118 L384.719947,86.545 L406.814947,86.545 Z M414.149943,118 L414.149943,86.545 L419.459943,86.545 L419.459943,112.96 L433.814943,112.96 L433.814943,118 L414.149943,118 Z" id="Manuela-Dörfel" fill="#D7D7D7"></path>
            </g>
            <g id="Group" transform="translate(69.000000, 84.000000)"></g>
            <g id="Group-2" transform="translate(36.000000, 36.000000)">
                <path d="M0,92.5 C0,41.4136606 41.4136606,0 92.5,0 C143.586339,0 185,41.4136606 185,92.5 C185,143.586339 143.586339,185 92.5,185 L0,185 L0,92.500016 Z" id="Combined-Shape" fill="#FFFFFF"></path>
                <path d="M33,91.7218579 C33,91.7218579 36.4687365,72.327498 48.3295074,72.327498 C60.1902782,72.327498 62.5267216,91.7218579 62.5267216,91.7218579 C62.5267216,91.7218579 68.503923,136.59744 83.3456734,136.59744 C98.1874237,136.59744 103.685578,91.7218579 103.685578,91.7218579 C103.685578,91.7218579 106.455341,60.0612022 122.030905,60.0612022 C137.606468,60.0612022 139.860167,91.7218579 139.860167,91.7218579 L33,91.7218579 Z" id="Path" fill="#D4C1EC"></path>
                <path d="M45.1463415,91.7218579 C45.1463415,91.7218579 48.5453984,125.29734 62.7839849,125.29734 C77.0225714,125.29734 81.7825576,91.7218579 81.7825576,91.7218579 C81.7825576,91.7218579 85.0923377,48 101.769709,48 C118.447081,48 121.894043,91.7218579 121.894043,91.7218579 C121.894043,91.7218579 124.822763,112.280753 137.476139,112.280753 C150.129515,112.280753 152.121915,91.7218579 152.121915,91.7218579 L45.1463415,91.7218579 Z" id="Path-2" fill="#736CED"></path>
            </g>
        </g>
    </g>
</svg>